<svg xmlns="http://www.w3.org/2000/svg" xmlns:xlink="http://www.w3.org/1999/xlink" width="1920" zoomAndPan="magnify" viewBox="0 0 1440 809.999993" height="1080" preserveAspectRatio="xMidYMid meet" version="1.0"><defs><clipPath id="320f8b078e"><path d="M 694.921875 375.835938 L 745 375.835938 L 745 434.335938 L 694.921875 434.335938 Z M 694.921875 375.835938 " clip-rule="nonzero"/></clipPath></defs><g clip-path="url(#320f8b078e)"><path fill="#ff6565" d="M 739.714844 383.652344 L 729.113281 383.652344 C 729.113281 383.652344 729.109375 383.652344 729.109375 383.648438 L 729.109375 379.84375 C 729.109375 377.636719 727.324219 375.851562 725.117188 375.851562 L 714.738281 375.851562 C 712.53125 375.851562 710.742188 377.636719 710.742188 379.84375 L 710.742188 383.648438 C 710.742188 383.652344 710.742188 383.652344 710.738281 383.652344 L 700.140625 383.652344 C 697.3125 383.652344 694.945312 385.910156 694.933594 388.738281 C 694.921875 391.460938 697.054688 393.695312 699.734375 393.855469 C 699.738281 393.855469 699.738281 393.855469 699.738281 393.859375 L 702.285156 428.648438 C 702.527344 431.9375 704.085938 434.148438 706.167969 434.148438 L 733.339844 434.148438 C 735.417969 434.148438 736.980469 431.9375 737.222656 428.648438 L 739.765625 393.863281 L 739.816406 393.863281 C 742.535156 393.863281 744.761719 391.730469 744.914062 389.046875 C 745.078125 386.082031 742.6875 383.652344 739.714844 383.652344 Z M 713.578125 379.84375 C 713.578125 379.203125 714.097656 378.683594 714.738281 378.683594 L 725.117188 378.683594 C 725.757812 378.683594 726.277344 379.203125 726.277344 379.84375 L 726.277344 383.648438 C 726.277344 383.652344 726.277344 383.652344 726.273438 383.652344 L 713.582031 383.652344 C 713.578125 383.652344 713.578125 383.652344 713.578125 383.648438 Z M 734.394531 428.441406 C 734.261719 430.28125 733.59375 431.222656 733.328125 431.316406 C 733.324219 431.316406 733.324219 431.316406 733.324219 431.316406 L 706.179688 431.316406 C 705.914062 431.222656 705.246094 430.28125 705.109375 428.441406 L 702.582031 393.867188 C 702.578125 393.867188 702.582031 393.863281 702.585938 393.863281 L 736.921875 393.863281 C 736.921875 393.863281 736.925781 393.867188 736.925781 393.867188 Z M 739.753906 391.03125 L 700.097656 391.03125 C 698.867188 391.03125 697.8125 390.074219 697.769531 388.84375 C 697.722656 387.550781 698.757812 386.484375 700.039062 386.484375 L 739.816406 386.484375 C 741.097656 386.484375 742.132812 387.550781 742.085938 388.84375 C 742.042969 390.074219 740.988281 391.03125 739.753906 391.03125 Z M 708.113281 400.695312 C 708.0625 399.914062 708.65625 399.242188 709.433594 399.191406 C 710.21875 399.140625 710.890625 399.734375 710.9375 400.515625 L 712.46875 424.484375 C 712.515625 425.265625 711.925781 425.9375 711.144531 425.988281 C 711.113281 425.988281 711.082031 425.992188 711.050781 425.992188 C 710.3125 425.992188 709.6875 425.414062 709.640625 424.664062 Z M 718.335938 424.59375 L 718.335938 400.636719 C 718.335938 399.855469 718.949219 399.183594 719.730469 399.171875 C 720.523438 399.160156 721.167969 399.796875 721.167969 400.585938 L 721.167969 424.542969 C 721.167969 425.324219 720.558594 425.996094 719.773438 426.011719 C 718.984375 426.023438 718.335938 425.382812 718.335938 424.59375 Z M 727.039062 424.484375 L 728.566406 400.515625 C 728.617188 399.734375 729.289062 399.140625 730.070312 399.191406 C 730.851562 399.242188 731.441406 399.914062 731.394531 400.695312 L 729.863281 424.664062 C 729.816406 425.414062 729.195312 425.992188 728.453125 425.992188 C 728.421875 425.992188 728.390625 425.988281 728.363281 425.988281 C 727.582031 425.9375 726.988281 425.265625 727.039062 424.484375 Z M 727.039062 424.484375 " fill-opacity="1" fill-rule="nonzero"/></g></svg>