<svg xmlns="http://www.w3.org/2000/svg" xmlns:xlink="http://www.w3.org/1999/xlink" width="1920" zoomAndPan="magnify" viewBox="0 0 1440 809.999993" height="1080" preserveAspectRatio="xMidYMid meet" version="1.0"><defs><clipPath id="0c9ccc0355"><path d="M 687.980469 373 L 751.730469 373 L 751.730469 437.15625 L 687.980469 437.15625 Z M 687.980469 373 " clip-rule="nonzero"/></clipPath></defs><g clip-path="url(#0c9ccc0355)"><path fill="#65b0ff" d="M 752.011719 382.296875 C 752.011719 379.972656 751.101562 377.78125 749.449219 376.164062 C 746.011719 372.726562 740.417969 372.726562 736.980469 376.164062 L 733.34375 379.804688 L 694.214844 379.804688 C 692.53125 379.804688 690.980469 380.445312 689.800781 381.625 C 688.621094 382.804688 687.980469 384.386719 687.980469 386.039062 L 687.980469 431.027344 C 687.980469 432.714844 688.621094 434.265625 689.800781 435.445312 C 690.980469 436.625 692.5625 437.265625 694.214844 437.265625 L 739.207031 437.265625 C 740.890625 437.265625 742.441406 436.625 743.621094 435.445312 C 744.800781 434.265625 745.441406 432.679688 745.441406 431.027344 L 745.441406 392.410156 L 746.722656 391.128906 L 749.417969 388.429688 C 751.101562 386.8125 752.011719 384.625 752.011719 382.296875 Z M 718.480469 415.898438 L 714.941406 412.359375 L 735.261719 392.039062 C 735.734375 391.566406 735.734375 390.757812 735.261719 390.285156 C 734.792969 389.8125 733.980469 389.8125 733.511719 390.285156 L 713.1875 410.605469 L 709.652344 407.035156 L 735.296875 381.386719 L 744.125 390.21875 Z M 708.773438 409.695312 L 715.851562 416.773438 L 707.59375 417.953125 Z M 742.980469 431.0625 C 742.980469 432.074219 742.574219 433.015625 741.867188 433.726562 C 741.160156 434.433594 740.21875 434.835938 739.207031 434.835938 L 694.214844 434.835938 C 693.203125 434.835938 692.261719 434.433594 691.554688 433.726562 C 690.84375 433.015625 690.441406 432.074219 690.441406 431.0625 L 690.441406 386.039062 C 690.441406 385.027344 690.84375 384.085938 691.554688 383.375 C 692.261719 382.667969 693.203125 382.265625 694.214844 382.265625 L 730.847656 382.265625 L 706.988281 406.15625 C 706.886719 406.257812 706.785156 406.394531 706.753906 406.527344 C 706.71875 406.5625 706.71875 406.628906 706.71875 406.664062 C 706.683594 406.730469 706.683594 406.796875 706.652344 406.832031 L 704.898438 419.199219 C 704.832031 419.605469 704.964844 419.976562 705.234375 420.246094 C 705.472656 420.480469 705.773438 420.617188 706.113281 420.617188 C 706.179688 420.617188 706.214844 420.617188 706.28125 420.617188 L 718.648438 418.863281 C 718.714844 418.863281 718.785156 418.828125 718.816406 418.796875 C 718.851562 418.796875 718.917969 418.761719 718.953125 418.761719 C 719.085938 418.695312 719.222656 418.628906 719.324219 418.527344 L 742.945312 394.902344 L 742.945312 431.0625 Z M 745.878906 388.5 L 737.050781 379.636719 L 738.769531 377.917969 C 739.949219 376.738281 741.53125 376.0625 743.214844 376.0625 C 744.902344 376.0625 746.484375 376.703125 747.664062 377.917969 C 748.84375 379.097656 749.484375 380.648438 749.484375 382.296875 C 749.484375 383.949219 748.84375 385.5 747.664062 386.679688 Z M 745.878906 388.5 " fill-opacity="1" fill-rule="nonzero"/></g></svg>